HIERARCHY
ROOT hips
{
  OFFSET 0 11.86390953 0.3628582958
  CHANNELS 6 Xposition Yposition Zposition Yrotation Xrotation Zrotation
  JOINT spine
  {
    OFFSET 0 0.05383551117999996 0
    CHANNELS 3 Yrotation Xrotation Zrotation
    JOINT chest
    {
      OFFSET 0 0.6394558760401424 0
      CHANNELS 3 Yrotation Xrotation Zrotation
      JOINT neck
      {
        OFFSET 0 2.720089088562982 0
        CHANNELS 3 Yrotation Xrotation Zrotation
        JOINT head
        {
          OFFSET 0 0.37880844870545777 0
          CHANNELS 3 Yrotation Xrotation Zrotation
          JOINT rightEye
          {
            OFFSET -0.42867780714 0.7547055649100001 0.7381831347
            CHANNELS 3 Yrotation Xrotation Zrotation
            End Site
            {
              OFFSET -0.42867780714 0.7547055649100001 0.7381831347
            }
          }
          JOINT leftEye
          {
            OFFSET 0.428676479 0.7547055559999993 0.7381844503
            CHANNELS 3 Yrotation Xrotation Zrotation
            End Site
            {
              OFFSET 0.428676479 0.7547055559999993 0.7381844503
            }
          }
          JOINT jaw
          {
            OFFSET -0.18933892286100001 1.5626303011000007 1.137441874206
            CHANNELS 3 Yrotation Xrotation Zrotation
            End Site
            {
              OFFSET -0.18933892286100001 1.5626303011000007 1.137441874206
            }
          }
        }
      }
      JOINT rightShoulder
      {
        OFFSET -0.6795351508 2.0665205 0
        CHANNELS 3 Yrotation Xrotation Zrotation
        JOINT rightUpperArm
        {
          OFFSET -0.7287400483531672 0 0
          CHANNELS 3 Yrotation Xrotation Zrotation
          JOINT rightLowerArm
          {
            OFFSET -1.9872982039174532 0 0
            CHANNELS 3 Yrotation Xrotation Zrotation
            JOINT rightHand
            {
              OFFSET -2.6451847532219275 0 0
              CHANNELS 3 Yrotation Xrotation Zrotation
              JOINT rightLittleProximal
              {
                OFFSET -0.8008804099999995 -0.09592044000000044 -0.26183688629999996
                CHANNELS 3 Yrotation Xrotation Zrotation
                JOINT rightLittleIntermediate
                {
                  OFFSET -0.2473955153999997 -0.02541697026000067 0.002370178700999967
                  CHANNELS 3 Yrotation Xrotation Zrotation
                  JOINT rightLittleDistal
                  {
                    OFFSET -0.163687229200001 -0.015790700860001117 -0.0004274845300000635
                    CHANNELS 3 Yrotation Xrotation Zrotation
                    End Site
                    {
                      OFFSET -0.163687229200001 -0.015790700860001117 -0.0004274845300000635
                    }
                  }
                }
              }
              JOINT rightRingProximal
              {
                OFFSET -0.8393382799999985 -0.06223833561000025 -0.09213143500000005
                CHANNELS 3 Yrotation Xrotation Zrotation
                JOINT rightRingIntermediate
                {
                  OFFSET -0.3284497260000011 -0.03264224524000103 0.009408593183000052
                  CHANNELS 3 Yrotation Xrotation Zrotation
                  JOINT rightRingDistal
                  {
                    OFFSET -0.19447660429999902 -0.021730899850000318 0.003074347969000052
                    CHANNELS 3 Yrotation Xrotation Zrotation
                    End Site
                    {
                      OFFSET -0.19447660429999902 -0.021730899850000318 0.003074347969000052
                    }
                  }
                }
              }
              JOINT rightMiddleProximal
              {
                OFFSET -0.8473005199999989 -0.06735503500000095 0.10541820299999995
                CHANNELS 3 Yrotation Xrotation Zrotation
                JOINT rightMiddleIntermediate
                {
                  OFFSET -0.3450455799999995 -0.02481901642000084 0.019012570390000032
                  CHANNELS 3 Yrotation Xrotation Zrotation
                  JOINT rightMiddleDistal
                  {
                    OFFSET -0.23542332000000088 -0.025003910029999243 0.0075583457949999905
                    CHANNELS 3 Yrotation Xrotation Zrotation
                    End Site
                    {
                      OFFSET -0.23542332000000088 -0.025003910029999243 0.0075583457949999905
                    }
                  }
                }
              }
              JOINT rightIndexProximal
              {
                OFFSET -0.8008568281999987 -0.09897839600000169 0.29462796
                CHANNELS 3 Yrotation Xrotation Zrotation
                JOINT rightIndexIntermediate
                {
                  OFFSET -0.30524754480000016 -0.024634122809999992 0.02743375304999998
                  CHANNELS 3 Yrotation Xrotation Zrotation
                  JOINT rightIndexDistal
                  {
                    OFFSET -0.23067378950000017 -0.016876459159999913 0.008484125099999983
                    CHANNELS 3 Yrotation Xrotation Zrotation
                    End Site
                    {
                      OFFSET -0.23067378950000017 -0.016876459159999913 0.008484125099999983
                    }
                  }
                }
              }
              JOINT rightThumbProximal
              {
                OFFSET -0.25574064999999935 -0.12833189930000155 0.22385698609999993
                CHANNELS 3 Yrotation Xrotation Zrotation
                JOINT rightThumbIntermediate
                {
                  OFFSET -0.22791743260000086 -0.07103586192999978 0.27385039
                  CHANNELS 3 Yrotation Xrotation Zrotation
                  JOINT rightThumbDistal
                  {
                    OFFSET -0.13610267659999975 -0.03369390969999997 0.14246511509999996
                    CHANNELS 3 Yrotation Xrotation Zrotation
                    End Site
                    {
                      OFFSET -0.13610267659999975 -0.03369390969999997 0.14246511509999996
                    }
                  }
                }
              }
            }
          }
        }
      }
      JOINT leftShoulder
      {
        OFFSET 0.6795338396 2.0665205 0
        CHANNELS 3 Yrotation Xrotation Zrotation
        JOINT leftUpperArm
        {
          OFFSET 0.7287383950230443 0 0
          CHANNELS 3 Yrotation Xrotation Zrotation
          JOINT leftLowerArm
          {
            OFFSET 1.9872997282019604 0 0
            CHANNELS 3 Yrotation Xrotation Zrotation
            JOINT leftHand
            {
              OFFSET 2.6451820781302327 0 0
              CHANNELS 3 Yrotation Xrotation Zrotation
              JOINT leftLittleProximal
              {
                OFFSET 0.8008804099999995 -0.09592306899999814 -0.2618342639000001
                CHANNELS 3 Yrotation Xrotation Zrotation
                JOINT leftLittleIntermediate
                {
                  OFFSET 0.2473981400000007 -0.02542352681000093 0.0023609995859999455
                  CHANNELS 3 Yrotation Xrotation Zrotation
                  JOINT leftLittleDistal
                  {
                    OFFSET 0.1636846068000002 -0.015794634789999318 -0.00043272972159996703
                    CHANNELS 3 Yrotation Xrotation Zrotation
                    End Site
                    {
                      OFFSET 0.1636846068000002 -0.015794634789999318 -0.00043272972159996703
                    }
                  }
                }
              }
              JOINT leftRingProximal
              {
                OFFSET 0.8393409199999996 -0.062242267999998324 -0.0921281570000001
                CHANNELS 3 Yrotation Xrotation Zrotation
                JOINT leftRingIntermediate
                {
                  OFFSET 0.3284471036000003 -0.03264224524000103 0.009405970574000042
                  CHANNELS 3 Yrotation Xrotation Zrotation
                  JOINT leftRingDistal
                  {
                    OFFSET 0.1944779099999996 -0.021732211159998904 0.003073036670000001
                    CHANNELS 3 Yrotation Xrotation Zrotation
                    End Site
                    {
                      OFFSET 0.1944779099999996 -0.021732211159998904 0.003073036670000001
                    }
                  }
                }
              }
              JOINT leftMiddleProximal
              {
                OFFSET 0.8473005200000001 -0.06736028199999788 0.1054214809999999
                CHANNELS 3 Yrotation Xrotation Zrotation
                JOINT leftMiddleIntermediate
                {
                  OFFSET 0.3450455799999995 -0.024824261000000014 0.019013225990000007
                  CHANNELS 3 Yrotation Xrotation Zrotation
                  JOINT leftMiddleDistal
                  {
                    OFFSET 0.2354259489999998 -0.025005222000000327 0.0075590014499999705
                    CHANNELS 3 Yrotation Xrotation Zrotation
                    End Site
                    {
                      OFFSET 0.2354259489999998 -0.025005222000000327 0.0075590014499999705
                    }
                  }
                }
              }
              JOINT leftIndexProximal
              {
                OFFSET 0.8008594516999996 -0.09898495199999946 0.29463124239999994
                CHANNELS 3 Yrotation Xrotation Zrotation
                JOINT leftIndexIntermediate
                {
                  OFFSET 0.30524754480000016 -0.024632811499998963 0.02743047472
                  CHANNELS 3 Yrotation Xrotation Zrotation
                  JOINT leftIndexDistal
                  {
                    OFFSET 0.23067378950000017 -0.016876459159999913 0.008481502700000004
                    CHANNELS 3 Yrotation Xrotation Zrotation
                    End Site
                    {
                      OFFSET 0.23067378950000017 -0.016876459159999913 0.008481502700000004
                    }
                  }
                }
              }
              JOINT leftThumbProximal
              {
                OFFSET 0.25574326469999953 -0.12833321050000013 0.22385764169999997
                CHANNELS 3 Yrotation Xrotation Zrotation
                JOINT leftThumbIntermediate
                {
                  OFFSET 0.22804987480000094 -0.07138466829999968 0.273648441
                  CHANNELS 3 Yrotation Xrotation Zrotation
                  JOINT leftThumbDistal
                  {
                    OFFSET 0.13614857189999907 -0.033867001519998885 0.14238119169999996
                    CHANNELS 3 Yrotation Xrotation Zrotation
                    End Site
                    {
                      OFFSET 0.13614857189999907 -0.033867001519998885 0.14238119169999996
                    }
                  }
                }
              }
            }
          }
        }
      }
    }
  }
  JOINT rightUpperLeg
  {
    OFFSET -0.9749898906000001 -1.8495733739999998 0
    CHANNELS 3 Yrotation Xrotation Zrotation
    JOINT rightLowerLeg
    {
      OFFSET 0 -4.1566544686813165 0
      CHANNELS 3 Yrotation Xrotation Zrotation
      JOINT rightFoot
      {
        OFFSET 0.14539718599999998 -4.225553926 -0.3666210900000001
        CHANNELS 3 Yrotation Xrotation Zrotation
        JOINT rightToes
        {
          OFFSET 0.1706738473 -0.9584117400000015 1.0093348617
          CHANNELS 3 Yrotation Xrotation Zrotation
          End Site
          {
            OFFSET 0.1706738473 -0.9584117400000015 1.0093348617
          }
        }
      }
    }
  }
  JOINT leftUpperLeg
  {
    OFFSET 0.9749898906000001 -1.8495733739999998 0
    CHANNELS 3 Yrotation Xrotation Zrotation
    JOINT leftLowerLeg
    {
      OFFSET 0 -4.156653488267941 0
      CHANNELS 3 Yrotation Xrotation Zrotation
      JOINT leftFoot
      {
        OFFSET -0.14537357999999995 -4.225555399999999 -0.36661124279999996
        CHANNELS 3 Yrotation Xrotation Zrotation
        JOINT leftToes
        {
          OFFSET -0.17066467000000002 -0.9584157000000019 1.0093348617
          CHANNELS 3 Yrotation Xrotation Zrotation
          End Site
          {
            OFFSET -0.17066467000000002 -0.9584157000000019 1.0093348617
          }
        }
      }
    }
  }
}
MOTION
Frames: 4
Frame Time: 0.03333333333333333
0.05444251373410225 -0.30076198513916097 0.027574410662055016 1.508664075252962 -0.8959903177319888 -5.4025486650171795 -1.1587849719598224 1.29689728717705 3.0057554403331923 1.2666112593494185 1.3390454764972206 11.808538341940407 -0.33266913906759804 1.0447748186902375 -2.1659395700363167 0.4395028956822758 1.5774492900591783 -8.13468443172564 0 0 0 0 0 0 0 0 0 3.405172124256283 4.498129779248412 5.695683893860892 1.3394211402757874 -1.6742183579837415 67.30133222515694 17.73525639863297 0.03517810112266166 -0.2254637006657675 -9.163839456549319 -11.056653435697172 12.02734675220329 -15.602424658259586 5.214467995580413 35.64273435767532 -3.4992950139223145 1.0430477748463458 45.60929358540546 -0.033229882080616224 -0.819739938913416 22.123053724271028 -11.331869640036704 2.4322641443594413 26.55426652379441 -3.433829679767045 1.5389327368562518 40.160243673644565 0.24967568825051706 -0.18717230228540585 17.81285476184199 -8.623131937666097 0.8982378321857601 15.807229978808051 -3.493250408809131 0.7745506612417191 33.390610628675375 -1.5230821300540716 0.18752690038876407 15.913350615303873 -4.58871342297394 0.3364888558428896 7.877052123783586 -2.5349417227778144 0.33654515251369155 20.583281697051124 -0.04944278188351401 -0.21471834473898402 13.845810611223042 -0.4730819081330296 18.648796673076934 -11.237340264635195 -31.738204336814782 0.8893834422586151 3.166399926442741 -7.69877602196745 1.6458720614434665 1.1069070602798554 -13.854265371944374 3.496988774604744 -5.725279406287207 2.7835432191009524 3.3703653684327906 -83.51892495985201 -14.505515298880319 0.023560081200405408 0.18539927140519916 4.035409251863458 -27.54270714636255 -11.331088874718118 15.842059851959057 5.385670442863364 -35.625569051143444 3.4619078829149954 1.3046730067697259 -45.60490350469552 2.5732507292656415 0.510742643633721 -20.536103065122838 11.348356523330075 2.4405385009605034 -26.553765055619063 3.4098119885238742 1.5344493464000308 -40.16007671996249 1.5898093443614965 0.5033769566654455 -19.35105432483817 8.5642388972372 0.8815989784480671 -15.807291593261846 3.586450973767596 0.7958300861592777 -33.39144840166456 1.333930297896098 0.15407008346615966 -12.278677323643363 4.5649875715652035 0.33322890562334684 -7.8766875555131515 2.5749988816520597 0.342669378460446 -20.583713805898167 0.6785104807656483 0.02293894081129668 -10.179001506352101 0.3620959368355816 18.62557192576213 11.179678768654288 31.852903233191704 0.9234723801849903 -3.1230248497206694 8.671560972310866 1.8058003281326986 -0.2995494660875018 -4.8326995421148755 -1.6076509259199667 10.752337644416274 -5.161663419098751 12.397928351336898 2.2226571655210243 0.9236193562596153 -9.850462094514928 -7.926910408178925 0.0000038136445985186764 -0.5486530415981868 -2.1677570421935289e-7 11.6727926748498 -19.196359324091738 11.913075141394593 10.26431381406097 21.734735739708007 6.051683465508759 3.2389005763675804 -1.495777595079407 -8.90864717851366 -0.0000072541732817128035 -0.4419603374668967 0.000004226768393997411
0.04326296225190163 -0.29555301602295003 0.028782658278942108 1.4134670194220114 -0.8818514051716956 -5.352029561831765 -1.1421225374708273 1.2894933973071525 2.9373174283125034 1.2792852544596733 1.3369653301664557 11.772951612407255 -0.352345775540721 1.0197997001879562 -2.149802496084515 0.9080885934334662 1.451866402033859 -7.591908654055146 0 0 0 0 0 0 0 0 0 3.398864982274452 4.498838888302561 5.6904550120837625 1.01893014462165 -1.293157657182675 67.36985299801322 18.246697898174894 0.03722353974920796 -0.23172640425167138 -8.406343596885513 -11.104732702448798 12.203624310983374 -15.605828643074558 5.21685049707403 35.68980244668785 -3.5030650996067996 1.0460131033062223 45.66380705139476 -0.034577169885830476 -0.8198741018308259 22.136222829252603 -11.33421698977376 2.4370782238323176 26.601327795860435 -3.4370993452407608 1.5424110942097289 40.214975469732686 0.24848472926535012 -0.1870990774644592 17.826028271669355 -8.626726758009843 0.9008474995134185 15.85450718935253 -3.4972927241124867 0.7770276322814105 33.445229373657995 -1.5241916130892816 0.18784537300770998 15.926537537067444 -4.592857586882308 0.33708698797611597 7.924392307297258 -2.539440454998834 0.3382203654918297 20.637829436320068 -0.05065982093720841 -0.21469912135675512 13.858980460278849 -0.47308815918867947 18.64880027741205 -11.237350688918976 -31.738199635372794 0.8893912872491175 3.1664109854066282 -7.6987777148214125 1.6458735561640097 1.1068989475968363 -13.844968410189745 3.4987516862760706 -5.706188321202366 2.5391680525222866 3.520497316774298 -83.48815322601612 -14.719175798013648 0.024270646052088247 0.18807409694464114 4.255722961206519 -27.950231247904178 -11.018862532386054 15.85109645532218 5.392761213880878 -35.75381231486163 3.4715209842196715 1.3134808068135717 -45.75350622390069 2.5760568137972704 0.5121855252238171 -20.57193139377861 11.354787090376325 2.4537342942073592 -26.681985982982294 3.4187414545388806 1.5439134269171293 -40.309267910377486 1.592600535785509 0.5047254909623875 -19.386879278988893 8.57409733658814 0.8885374108296917 -15.936138754803752 3.5974261924429602 0.8027279143650861 -33.54032483681822 1.3369523173784192 0.15483996330883984 -12.314521243135653 4.576256253233398 0.33480171680785525 -8.005767569268164 2.587239949656816 0.34729568818428486 -20.732412474913662 0.6816607562859311 0.02338162081551873 -10.214861266205952 0.3620955936029201 18.625577331525776 11.17969342408661 31.852920245455437 0.9234677905555149 -3.123015897248486 8.671560127877457 1.8058157036942784 -0.2995554453907599 -4.807973540490297 -1.3932784025393594 10.766773670446913 -4.947574026258456 11.942932820284211 2.2868650190760866 0.8218153663459496 -9.627098425578117 -8.006402383660227 0.000002143328052314236 -0.5727834413590328 0.0000010780010253849167 11.659544876215552 -19.002679129421573 11.941584991181557 10.408534485610089 21.381660791730926 6.018728284283521 3.2057296250995946 -1.3099754675665118 -8.93972261850076 -0.000035010697215489795 -0.41847230880354874 0.0000062951846521009554
0.02781934104859829 -0.2848833077709969 0.03328846022486687 1.161471059687475 -0.872403346032848 -5.2180829584570265 -1.11463905839534 1.2729708807880038 2.8339634492619856 1.3002424672851938 1.329770765985739 11.723461167338664 -0.3906230866014839 0.9655786413486119 -2.1192536819590777 1.9109950161301774 1.0966528688417536 -6.567663462228287 0 0 0 0 0 0 0 0 0 3.384359679587532 4.4996250752349995 5.666018188685892 0.24823576894228078 -0.4649037415470774 67.5052018713246 19.442488585119307 0.042217706569910925 -0.24637258466144726 -6.771430989169964 -11.158094266286406 12.64492786630522 -15.631808267793494 5.235088635918373 36.04951331425359 -3.5318323715974658 1.0689310107031493 46.08053644744912 -0.04479135925142724 -0.8209513544404929 22.23675449651623 -11.351917200308554 2.4738896047713785 26.9609299279207 -3.4620216484160555 1.569078619262874 40.63323785401313 0.23945897403803287 -0.18653086140207265 17.926533557488455 -8.654083714856965 0.9206945880792047 16.215807524182885 -3.5281558359367233 0.7962600026833901 33.86258902428458 -1.5326052781070156 0.1902670350973706 16.027050855670883 -4.624502895572395 0.34170803887041334 8.286251797243892 -2.573795400790517 0.35122303988232473 21.05485593404684 -0.05987833203290176 -0.21462636332319424 13.959521620023965 -0.47307742942371844 18.648791266574403 -11.237329840352002 -31.738194933930984 0.8893954498971459 3.166414182555133 -7.698765864843386 1.6458755847133204 1.1068947845094799 -13.828542933342813 3.501325064264943 -5.6891983167502955 1.8274979330028172 3.9388843787582077 -83.40972334009827 -15.300859711969334 0.02620075998177733 0.1953247963752736 4.838271326918506 -29.237543489916973 -10.137088362691959 15.903986922089189 5.43510904228998 -36.521658145488495 3.528545680698031 1.3666363527765897 -46.64274735995853 2.592882106489603 0.5208049872100287 -20.786354694787242 11.391809000778037 2.5325825753109705 -27.449522546369213 3.471673189404633 1.6010569950394007 -41.20198826526344 1.6092676480694899 0.5128240133715757 -19.60127278172485 8.632385297831213 0.930365583419683 -16.707328107044795 3.6627154657952072 0.8446404727249409 -34.431140404466596 1.355030668047748 0.1594733969779249 -12.529061724969253 4.643811437153252 0.34467025967475096 -8.77810688024987 2.6603004160023085 0.3757361751331623 -21.622526137882186 0.7004414489221783 0.02598392813357172 -10.429402945471534 0.3620919107483517 18.62557192576213 11.179657741047542 31.852920245455437 0.9234673636132384 -3.123013978861569 8.671552857260314 1.8058107920565374 -0.29956617610462627 -4.810336190198161 -0.9553974541777127 10.69716769737029 -4.531222346471234 11.09858663457449 2.421150989357218 0.7482656547058244 -9.212738572009208 -8.137998211025039 0.000005558035552364131 -0.6190286189797581 -0.00000196863986027376 11.761035763520253 -18.587656521736108 11.963115155367896 10.45071690120076 20.73620976317442 5.775976603620878 3.3238448215839598 -1.0005846721231266 -8.915397679401611 0.00001405969342316225 -0.37142103135881877 -2.920379581275134e-7
0.02525828778743744 -0.2758377068798836 0.039898667484521866 0.8454476170697193 -0.8805162654562968 -5.047003419096015 -1.10174514470426 1.25792371923529 2.7726439672491225 1.3097830010956337 1.3211735262688913 11.702314266763441 -0.42148606761117097 0.9059371566958946 -2.0726760293446085 3.026581735712793 0.6229541272419075 -5.606131122545718 0 0 0 0 0 0 0 0 0 3.367604127457125 4.49994451744464 5.628770766302883 -0.646411365162445 0.4359276626523728 67.62179092891395 20.822910785382113 0.048346959498644794 -0.26308477973759303 -5.014419462486804 -11.18441275920737 13.154210172127186 -15.680307152736631 5.269791266970123 36.72559746920243 -3.5854613522999603 1.1125221338473892 46.86370456759116 -0.06402241165402942 -0.8229032818347941 22.425726113788375 -11.384179666422153 2.543189377063168 27.636851381894726 -3.508334295300652 1.6196955117822076 41.41936483035653 0.22249044943529883 -0.18540575523260155 18.11547103207858 -8.70498098230571 0.9584068923688803 16.894852373596365 -3.585772288912931 0.8330076807079217 34.6470322324733 -1.5484126087866414 0.19484662275818798 16.21597378273821 -4.683914933856754 0.3509302433859257 8.966386773372271 -2.638096102584151 0.3763300675357835 21.838663808183433 -0.0772152002683088 -0.21442244339452643 14.148472407182084 -0.4730896797157278 18.648796673076934 -11.23734468367772 -31.73821194300995 0.8893824282802522 3.1663756281143933 -7.698765864843386 1.6458721682092197 1.1069109031296913 -13.820377176789899 3.5020311727073565 -5.70011662910243 0.855635533757794 4.497490468356029 -83.32628848117079 -16.05820757022883 0.028840131477742243 0.20472073166744797 5.5379042306241635 -31.122906953049434 -8.949851422101396 15.994538575074033 5.510441086028616 -37.85915074828533 3.6258839205500664 1.46131389888066 -48.19157836525146 2.6221025652713448 0.5359866354130415 -21.15983881648574 11.452128356665282 2.6702800420025663 -28.786695983532397 3.5617137908901633 1.7025509709479447 -42.75691818783721 1.638240596549142 0.5270787782777222 -19.974730145051627 8.731765858397303 1.0048409586387608 -18.050598777147 3.774845773080051 0.9200439286160422 -35.982655803592685 1.38648514721248 0.16769407008437662 -12.902783210216151 4.761185452650381 0.3640623381301007 -10.1233472749795 2.7864507245413708 0.42792381421457115 -23.17280721384271 0.7331543724225562 0.03070393293942266 -10.803146338051631 0.3620976033275551 18.62556471807754 11.179663928095449 31.852903233191704 0.9234721667138518 -3.1229994843824187 8.671550323960117 1.8058214695299044 -0.2995523756591773 -4.868437041946294 -0.6367201914293018 10.498845108166847 -4.262851622570002 10.568291660237897 2.4989429958037492 0.9187194707177458 -8.94834251410726 -8.184034779134576 0.0000018064779062108876 -0.6622797080429296 -0.0000030008251529114717 11.972920000078348 -18.199800868278764 11.911353247857411 10.359254294920575 20.268330255866637 5.439394183584361 3.5556998299334324 -0.8307190593216863 -8.803790656556252 -0.000007357370452140244 -0.3525449999025047 -0.0000017209783424990393
